# Blender v2.92.0 OBJ File: 'obstacle.blend'
# www.blender.org
mtllib Obstacle_outer.mtl
o Outer_Cube
v 2.500000 1.000000 -0.500000
v 2.500000 0.000000 -0.500000
v 2.500000 1.000000 0.500000
v 2.500000 0.000000 0.500000
v -2.500000 1.000000 -0.500000
v -2.500000 0.000000 -0.500000
v -2.500000 1.000000 0.500000
v -2.500000 0.000000 0.500000
v -2.500000 0.100000 0.400000
v -2.500000 0.900000 -0.400000
v -2.500000 0.900000 0.400000
v -2.500000 0.100000 -0.400000
v 2.500000 0.100000 -0.400000
v 2.500000 0.900000 0.400000
v 2.500000 0.900000 -0.400000
v 2.500000 0.100000 0.400000
vt 0.625000 0.500000
vt 0.875000 0.500000
vt 0.875000 0.750000
vt 0.625000 0.750000
vt 0.375000 0.750000
vt 0.625000 1.000000
vt 0.375000 1.000000
vt 0.125000 0.500000
vt 0.375000 0.500000
vt 0.125000 0.750000
vt 0.375000 0.250000
vt 0.625000 0.250000
vt 0.600000 0.025000
vt 0.625000 0.000000
vt 0.400000 0.225000
vt 0.600000 0.225000
vt 0.375000 0.000000
vt 0.400000 0.025000
vt 0.400000 0.725000
vt 0.600000 0.725000
vt 0.600000 0.525000
vt 0.400000 0.525000
vt 0.812500 0.500000
vt 0.687500 0.500000
vt 0.687500 0.750000
vt 0.812500 0.750000
vt 0.375000 0.812500
vt 0.375000 0.937500
vt 0.625000 0.937500
vt 0.625000 0.812500
vt 0.187500 0.500000
vt 0.187500 0.750000
vt 0.312500 0.750000
vt 0.312500 0.500000
vt 0.625000 0.312500
vt 0.375000 0.312500
vt 0.375000 0.437500
vt 0.625000 0.437500
vn 0.0000 1.0000 0.0000
vn 0.0000 0.0000 1.0000
vn 0.0000 -1.0000 0.0000
vn 0.0000 0.0000 -1.0000
vn -1.0000 -0.0000 0.0000
vn 1.0000 0.0000 0.0000
usemtl Material
s off
f 1/1/1 5/2/1 7/3/1 3/4/1
f 4/5/2 3/4/2 7/6/2 8/7/2
f 6/8/3 2/9/3 4/5/3 8/10/3
f 6/11/4 5/12/4 1/1/4 2/9/4
f 11/13/5 7/14/5 5/12/5 6/11/5 12/15/5 10/16/5
f 12/15/5 6/11/5 8/17/5 7/14/5 11/13/5 9/18/5
f 2/9/6 1/1/6 3/4/6 4/5/6 16/19/6 14/20/6 15/21/6 13/22/6
f 16/19/6 4/5/6 2/9/6 13/22/6
usemtl Material.003
f 10/23/3 15/24/3 14/25/3 11/26/3
f 16/27/4 9/28/4 11/29/4 14/30/4
f 12/31/1 9/32/1 16/33/1 13/34/1
f 10/35/2 12/36/2 13/37/2 15/38/2
