# Blender v2.92.0 OBJ File: 'round.blend'
# www.blender.org
mtllib Platform_round_bottom.mtl
o Bottom_Cylinder.001
v 2.499997 -1.000000 7.500000
v 2.499997 -0.100000 7.500000
v 0.549093 -1.000000 7.307852
v 0.549093 -0.100000 7.307852
v -1.326839 -1.000000 6.738793
v -1.326839 -0.100000 6.738793
v -3.055708 -1.000000 5.814693
v -3.055708 -0.100000 5.814693
v -4.571073 -1.000000 4.571064
v -4.571073 -0.100000 4.571064
v -5.814701 -1.000000 3.055696
v -5.814701 -0.100000 3.055696
v -6.738799 -1.000000 1.326827
v -6.738799 -0.100000 1.326827
v -7.307856 -1.000000 -0.549105
v -7.307856 -0.100000 -0.549105
v 2.500000 -0.100000 7.499999
v 2.500000 -1.000000 7.499999
v -7.500000 -0.100000 -2.500000
v -7.500000 -1.000000 -2.500000
v 2.499998 -0.100000 2.500000
v 2.500000 -0.100000 2.500000
v -2.500000 -0.100000 -2.500000
v -2.119400 -0.100000 -0.586587
v -2.403928 -0.100000 -1.524553
v 1.524546 -0.100000 2.403926
v 0.586580 -0.100000 2.119397
v -1.657351 -0.100000 0.277848
v -0.277854 -0.100000 1.657347
v -1.035537 -0.100000 1.035532
v 2.499998 -1.000000 2.500000
v 2.500000 -1.000000 2.500000
v -2.403928 -1.000000 -1.524553
v -2.500000 -1.000000 -2.500000
v -1.035537 -1.000000 1.035532
v -1.657351 -1.000000 0.277848
v -2.119400 -1.000000 -0.586587
v -0.277854 -1.000000 1.657347
v 1.524546 -1.000000 2.403926
v 0.586580 -1.000000 2.119397
vt 0.500000 0.500000
vt 0.500000 1.000000
vt 0.468750 1.000000
vt 0.468750 0.500000
vt 0.437500 1.000000
vt 0.437500 0.500000
vt 0.406250 1.000000
vt 0.406250 0.500000
vt 0.375000 1.000000
vt 0.375000 0.500000
vt 0.343750 1.000000
vt 0.343750 0.500000
vt 0.312500 1.000000
vt 0.312500 0.500000
vt 0.281250 1.000000
vt 0.281250 0.500000
vt 0.500000 0.500000
vt 0.500000 1.000000
vt 0.250000 1.000000
vt 0.250000 0.500000
vt 0.010000 0.250000
vt 0.014611 0.203179
vt 0.028269 0.158156
vt 0.050447 0.116663
vt 0.080294 0.080294
vt 0.116663 0.050447
vt 0.158156 0.028269
vt 0.203178 0.014612
vt 0.250000 0.010000
vt 0.250000 0.010000
vt 0.250000 0.130000
vt 0.250000 0.130000
vt 0.226589 0.132306
vt 0.204078 0.139134
vt 0.183331 0.150224
vt 0.165147 0.165147
vt 0.150224 0.183332
vt 0.139134 0.204078
vt 0.132306 0.226589
vt 0.130000 0.250000
vt 0.750000 0.010000
vt 0.750000 0.010000
vt 0.703178 0.014612
vt 0.658156 0.028269
vt 0.616663 0.050447
vt 0.580294 0.080294
vt 0.550447 0.116663
vt 0.528269 0.158156
vt 0.514611 0.203179
vt 0.510000 0.250000
vt 0.630000 0.250000
vt 0.632306 0.226589
vt 0.639134 0.204078
vt 0.650224 0.183332
vt 0.665147 0.165147
vt 0.683331 0.150224
vt 0.704078 0.139134
vt 0.726589 0.132306
vt 0.750000 0.130000
vt 0.750000 0.130000
vt 0.495000 0.062500
vt 0.450000 0.062500
vt 0.450000 0.093750
vt 0.495000 0.093750
vt 0.450000 0.937500
vt 0.495000 0.937500
vt 0.495000 0.906250
vt 0.450000 0.906250
vt 0.500000 0.525000
vt 0.500000 0.525000
vt 0.500000 0.750000
vt 0.500000 0.750000
vt 0.468750 0.750000
vt 0.468750 0.525000
vt 0.437500 0.750000
vt 0.437500 0.525000
vt 0.406250 0.750000
vt 0.406250 0.525000
vt 0.375000 0.750000
vt 0.375000 0.525000
vt 0.343750 0.525000
vt 0.343750 0.750000
vt 0.312500 0.525000
vt 0.312500 0.750000
vt 0.281250 0.525000
vt 0.281250 0.750000
vt 0.250000 0.750000
vt 0.250000 0.525000
vn -0.0980 0.0000 0.9952
vn -0.2903 0.0000 0.9569
vn -0.4714 0.0000 0.8819
vn -0.6344 0.0000 0.7730
vn -0.7730 0.0000 0.6344
vn -0.8819 0.0000 0.4714
vn -0.9569 0.0000 0.2903
vn 0.3026 0.0000 0.9531
vn -0.9952 0.0000 0.0980
vn 0.0000 1.0000 -0.0000
vn 0.0000 -1.0000 0.0000
vn 1.0000 0.0000 0.0000
vn 0.0000 0.0000 -1.0000
vn -0.3026 0.0000 -0.9531
vn 0.0980 0.0000 -0.9952
vn 0.2903 0.0000 -0.9569
vn 0.4714 0.0000 -0.8819
vn 0.6344 0.0000 -0.7730
vn 0.7730 0.0000 -0.6344
vn 0.8819 0.0000 -0.4714
vn 0.9569 0.0000 -0.2903
vn 0.9952 0.0000 -0.0980
usemtl None
s off
f 1/1/1 2/2/1 4/3/1 3/4/1
f 3/4/2 4/3/2 6/5/2 5/6/2
f 5/6/3 6/5/3 8/7/3 7/8/3
f 7/8/4 8/7/4 10/9/4 9/10/4
f 9/10/5 10/9/5 12/11/5 11/12/5
f 11/12/6 12/11/6 14/13/6 13/14/6
f 13/14/7 14/13/7 16/15/7 15/16/7
f 2/2/8 1/1/8 18/17/8 17/18/8
f 15/16/9 16/15/9 19/19/9 20/20/9
f 19/21/10 16/22/10 14/23/10 12/24/10 10/25/10 8/26/10 6/27/10 4/28/10 2/29/10 17/30/10 22/31/10 21/32/10 26/33/10 27/34/10 29/35/10 30/36/10 28/37/10 24/38/10 25/39/10 23/40/10
f 18/41/11 1/42/11 3/43/11 5/44/11 7/45/11 9/46/11 11/47/11 13/48/11 15/49/11 20/50/11 34/51/11 33/52/11 37/53/11 36/54/11 35/55/11 38/56/11 40/57/11 39/58/11 31/59/11 32/60/11
f 17/61/12 18/62/12 32/63/12 22/64/12
f 20/65/13 19/66/13 23/67/13 34/68/13
f 32/69/14 31/70/14 21/71/14 22/72/14
f 26/73/15 21/71/15 31/70/15 39/74/15
f 27/75/16 26/73/16 39/74/16 40/76/16
f 29/77/17 27/75/17 40/76/17 38/78/17
f 30/79/18 29/77/18 38/78/18 35/80/18
f 36/81/19 28/82/19 30/79/19 35/80/19
f 37/83/20 24/84/20 28/82/20 36/81/20
f 33/85/21 25/86/21 24/84/21 37/83/21
f 23/87/22 25/86/22 33/85/22 34/88/22
