# Blender v2.92.0 OBJ File: ''
# www.blender.org
mtllib Platform_angle_bottom.mtl
o Cube_Cube.002
v -2.500000 -1.000000 -2.500000
v -2.500000 -0.100000 -2.500000
v -1.524549 -1.000000 -2.403926
v -1.524549 -0.100000 -2.403926
v -0.586583 -1.000000 -2.119397
v -0.586583 -0.100000 -2.119397
v 0.277851 -1.000000 -1.657348
v 0.277851 -0.100000 -1.657348
v 1.035533 -1.000000 -1.035533
v 1.035533 -0.100000 -1.035533
v 1.657348 -1.000000 -0.277851
v 1.657348 -0.100000 -0.277851
v 2.119397 -1.000000 0.586583
v 2.119397 -0.100000 0.586583
v 2.403926 -1.000000 1.524548
v 2.403926 -0.100000 1.524548
v 2.500000 -1.000000 2.500000
v 2.500000 -0.100000 2.500000
v 2.500000 -0.100000 2.500000
v 2.500000 -1.000000 2.500000
v -2.500000 -1.000000 2.500000
v -2.500000 -0.100000 2.500000
vt 1.000000 0.500000
vt 1.000000 1.000000
vt 0.968750 1.000000
vt 0.968750 0.500000
vt 0.937500 1.000000
vt 0.937500 0.500000
vt 0.906250 1.000000
vt 0.906250 0.500000
vt 0.875000 1.000000
vt 0.875000 0.500000
vt 0.843750 1.000000
vt 0.843750 0.500000
vt 0.812500 1.000000
vt 0.812500 0.500000
vt 0.781250 1.000000
vt 0.781250 0.500000
vt 0.750000 1.000000
vt 0.750000 0.500000
vt 0.750000 0.500000
vt 0.750000 1.000000
vt 0.500000 0.593750
vt 0.500000 0.531250
vt 0.487500 0.531250
vt 0.487500 0.593750
vt 0.490000 0.250000
vt 0.485388 0.296822
vt 0.471731 0.341844
vt 0.449553 0.383337
vt 0.419706 0.419706
vt 0.383337 0.449553
vt 0.341844 0.471731
vt 0.296822 0.485388
vt 0.250000 0.490000
vt 0.250000 0.250000
vt 0.490000 0.250000
vt 0.796822 0.485388
vt 0.841844 0.471731
vt 0.883337 0.449553
vt 0.919706 0.419706
vt 0.949553 0.383337
vt 0.971731 0.341844
vt 0.985388 0.296822
vt 0.990000 0.250000
vt 0.990000 0.250000
vt 0.750000 0.250000
vt 0.750000 0.490000
vt 0.487500 0.406250
vt 0.487500 0.437500
vt 0.500000 0.437500
vt 0.500000 0.406250
vn 0.0980 0.0000 -0.9952
vn 0.2903 0.0000 -0.9569
vn 0.4714 0.0000 -0.8819
vn 0.6344 0.0000 -0.7730
vn 0.7730 0.0000 -0.6344
vn 0.8819 0.0000 -0.4714
vn 0.9569 0.0000 -0.2903
vn 0.9952 0.0000 -0.0980
vn 1.0000 0.0000 0.0000
vn -1.0000 0.0000 0.0000
vn 0.0000 1.0000 0.0000
vn 0.0000 -1.0000 0.0000
vn 0.0000 0.0000 1.0000
usemtl None
s off
f 1/1/1 2/2/1 4/3/1 3/4/1
f 3/4/2 4/3/2 6/5/2 5/6/2
f 5/6/3 6/5/3 8/7/3 7/8/3
f 7/8/4 8/7/4 10/9/4 9/10/4
f 9/10/5 10/9/5 12/11/5 11/12/5
f 11/12/6 12/11/6 14/13/6 13/14/6
f 13/14/7 14/13/7 16/15/7 15/16/7
f 15/16/8 16/15/8 18/17/8 17/18/8
f 20/19/9 17/18/9 18/17/9 19/20/9
f 22/21/10 2/22/10 1/23/10 21/24/10
f 18/25/11 16/26/11 14/27/11 12/28/11 10/29/11 8/30/11 6/31/11 4/32/11 2/33/11 22/34/11 19/35/11
f 3/36/12 5/37/12 7/38/12 9/39/12 11/40/12 13/41/12 15/42/12 17/43/12 20/44/12 21/45/12 1/46/12
f 21/47/13 20/48/13 19/49/13 22/50/13
