# Blender v2.92.0 OBJ File: 'tunnel.blend'
# www.blender.org
mtllib Tunnel_top.mtl
o Torus
v -0.000000 -0.044093 1.079630
v 0.500000 -0.009418 0.950220
v -0.500000 -0.009418 0.950220
v 0.866025 -0.089393 -0.516422
v -0.866025 -0.089393 -0.516422
v -2.500000 -0.100000 2.500000
v -2.500000 0.000000 2.500000
v -2.500000 -0.100000 -2.500000
v -2.500000 0.000000 -2.500000
v 2.500000 -0.100000 2.500000
v 2.500000 0.000000 2.500000
v 2.500000 -0.100000 -2.500000
v 2.500000 0.000000 -2.500000
v -0.000000 0.000000 1.088400
v 0.500000 0.000000 0.952094
v 0.536388 0.000000 0.915072
v -0.536388 0.000000 0.915072
v -0.500000 0.000000 0.952094
v -0.000000 -0.100000 1.060652
v 0.500000 -0.100000 0.919472
v 0.704243 -0.100000 0.704244
v 0.866025 -0.100000 0.533761
v 0.866025 0.000000 0.567706
v 1.000000 -0.100000 0.006869
v 1.000000 0.000000 0.040814
v 0.873452 -0.100000 -0.490814
v 0.866025 0.000000 -0.486077
v 0.632431 0.000000 -0.732235
v -0.632431 0.000000 -0.732235
v -0.866025 0.000000 -0.486077
v -0.873452 -0.100000 -0.490814
v -1.000000 0.000000 0.040814
v -1.000000 -0.100000 0.006869
v -0.866025 -0.100000 0.533761
v -0.866025 0.000000 0.567706
v -0.720772 0.000000 0.720772
v -0.500000 -0.100000 0.919472
v 0.866025 -0.100000 -0.521653
v 0.500000 0.000000 -0.879577
v 0.500000 -0.100000 -0.928892
v -0.000000 0.000000 -1.028637
v -0.000000 -0.100000 -1.077952
v -0.500000 0.000000 -0.879578
v -0.500000 -0.100000 -0.928892
v -0.600153 -0.100000 -0.817461
v -0.866025 -0.100000 -0.521653
vt 0.375000 0.000000
vt 0.625000 0.000000
vt 0.625000 0.250000
vt 0.375000 0.250000
vt 0.625000 0.500000
vt 0.375000 0.500000
vt 0.625000 0.750000
vt 0.375000 0.750000
vt 0.625000 1.000000
vt 0.375000 1.000000
vt 0.291352 0.583333
vt 0.291667 0.583333
vt 0.291667 0.500000
vt 0.290235 0.500000
vt 0.291667 0.591618
vt 0.291352 0.416667
vt 0.291667 0.416667
vt 0.291667 0.408382
vt 0.293547 0.500000
vt 0.294798 0.583333
vt 0.294855 0.666667
vt 0.298593 0.666667
vt 0.296835 0.629834
vt 0.300696 0.750000
vt 0.304900 0.750000
vt 0.308204 0.833333
vt 0.312500 0.833333
vt 0.312500 0.828714
vt 0.312500 0.886516
vt 0.308204 0.166667
vt 0.312500 0.166667
vt 0.312500 0.113484
vt 0.312500 0.171286
vt 0.300696 0.250000
vt 0.304900 0.250000
vt 0.294855 0.333333
vt 0.298593 0.333333
vt 0.293387 0.366403
vt 0.294798 0.416667
vt 0.313038 0.833333
vt 0.315372 0.916667
vt 0.321038 0.916667
vt 0.318535 1.000000
vt 0.324454 1.000000
vt 0.324454 0.000000
vt 0.318535 0.000000
vt 0.315372 0.083333
vt 0.321038 0.083333
vt 0.318648 0.106135
vt 0.313038 0.166667
vt 0.225000 0.578555
vt 0.219992 0.584127
vt 0.125000 0.500000
vt 0.285212 0.660212
vt 0.293301 0.651688
vt 0.300000 0.625343
vt 0.293673 0.600459
vt 0.293301 0.598917
vt 0.275000 0.578555
vt 0.250000 0.571102
vt 0.125000 0.750000
vt 0.206699 0.598917
vt 0.206327 0.600459
vt 0.200000 0.625343
vt 0.206699 0.651688
vt 0.225000 0.670974
vt 0.250000 0.678033
vt 0.275000 0.670974
vt 0.776819 0.670754
vt 0.786039 0.661039
vt 0.875000 0.750000
vt 0.723181 0.670754
vt 0.725000 0.672605
vt 0.750000 0.679420
vt 0.775000 0.672605
vt 0.875000 0.500000
vt 0.793301 0.653385
vt 0.800000 0.627041
vt 0.793301 0.600696
vt 0.781622 0.588388
vt 0.775000 0.581021
vt 0.750000 0.573568
vt 0.725000 0.581021
vt 0.718379 0.588388
vt 0.706699 0.600696
vt 0.700000 0.627041
vt 0.706699 0.653385
vn -1.0000 0.0000 0.0000
vn 0.0000 0.0000 -1.0000
vn 1.0000 0.0000 0.0000
vn 0.0000 0.0000 1.0000
vn -0.2583 0.1885 -0.9475
vn -0.7063 0.1381 -0.6943
vn 0.7063 0.1381 -0.6943
vn 0.2583 0.1885 -0.9475
vn -0.2583 0.3105 -0.9148
vn -0.7063 0.2275 -0.6703
vn -0.9658 0.0834 -0.2456
vn -0.9658 -0.0834 0.2456
vn -0.7063 -0.2275 0.6703
vn 0.7063 -0.2275 0.6703
vn 0.9658 -0.0834 0.2456
vn 0.9658 0.0834 -0.2456
vn 0.7063 0.2275 -0.6703
vn 0.2583 0.3105 -0.9148
vn -0.9658 -0.1147 0.2326
vn -0.7063 -0.3131 0.6349
vn -0.2583 -0.4273 0.8664
vn 0.2583 -0.4273 0.8664
vn 0.7063 -0.3131 0.6349
vn 0.9658 -0.1147 0.2326
vn -0.0000 -1.0000 0.0000
vn 0.0000 1.0000 -0.0000
usemtl None
s off
f 6/1/1 7/2/1 9/3/1 8/4/1
f 8/4/2 9/3/2 13/5/2 12/6/2
f 12/6/3 13/5/3 11/7/3 10/8/3
f 10/8/4 11/7/4 7/9/4 6/10/4
f 15/11/5 2/12/5 1/13/5 14/14/5
f 16/15/6 2/12/6 15/11/6
f 18/16/7 3/17/7 17/18/7
f 14/14/8 1/13/8 3/17/8 18/16/8
f 19/19/9 1/13/9 2/12/9 20/20/9
f 20/20/10 2/12/10 16/15/10 23/21/10 22/22/10 21/23/10
f 22/22/11 23/21/11 25/24/11 24/25/11
f 27/26/12 4/27/12 26/28/12 24/25/12 25/24/12
f 28/29/13 4/27/13 27/26/13
f 30/30/14 5/31/14 29/32/14
f 31/33/15 5/31/15 30/30/15 32/34/15 33/35/15
f 33/35/16 32/34/16 35/36/16 34/37/16
f 34/37/17 35/36/17 36/38/17 17/18/17 3/17/17 37/39/17
f 37/39/18 3/17/18 1/13/18 19/19/18
f 4/27/19 38/40/19 26/28/19
f 4/27/20 28/29/20 39/41/20 40/42/20 38/40/20
f 40/42/21 39/41/21 41/43/21 42/44/21
f 42/45/22 41/46/22 43/47/22 44/48/22
f 45/49/23 44/48/23 43/47/23 29/32/23 5/31/23 46/50/23
f 46/50/24 5/31/24 31/33/24
f 44/51/25 45/52/25 8/53/25 12/6/25 10/8/25 21/54/25 22/55/25 24/56/25 26/57/25 38/58/25 40/59/25 42/60/25
f 21/54/25 10/8/25 6/61/25 8/53/25 45/52/25 46/62/25 31/63/25 33/64/25 34/65/25 37/66/25 19/67/25 20/68/25
f 17/69/26 36/70/26 7/71/26 11/7/26 16/72/26 15/73/26 14/74/26 18/75/26
f 16/72/26 11/7/26 13/5/26 9/76/26 7/71/26 36/70/26 35/77/26 32/78/26 30/79/26 29/80/26 43/81/26 41/82/26 39/83/26 28/84/26 27/85/26 25/86/26 23/87/26
