# Blender v2.92.0 OBJ File: 'tunnel.blend'
# www.blender.org
mtllib Tunnel_bottom.mtl
o Torus.001
v -0.000000 -0.663418 0.869397
v 0.500000 -0.612148 0.745621
v 0.866025 -0.472077 0.407457
v 1.000000 -0.280735 -0.054482
v -1.000000 -0.280735 -0.054482
v -0.866025 -0.472077 0.407457
v -0.500000 -0.612148 0.745621
v -0.000000 -1.250000 0.580127
v 0.500000 -1.183012 0.464102
v 0.866025 -1.000000 0.147115
v 1.000000 -0.750000 -0.285898
v 0.866025 -0.500000 -0.718911
v 0.500000 -0.316987 -1.035898
v -0.000000 -0.250000 -1.151924
v -0.500000 -0.316987 -1.035898
v -0.866025 -0.500000 -0.718911
v -1.000000 -0.750000 -0.285898
v -0.866026 -1.000000 0.147115
v -0.500000 -1.183012 0.464102
v -0.000000 -1.793806 0.216768
v 0.500000 -1.712247 0.110478
v 0.866025 -1.489425 -0.179909
v 1.000000 -1.185045 -0.576586
v 0.866025 -0.880664 -0.973263
v 0.500000 -0.657842 -1.263650
v -0.000000 -0.576284 -1.369940
v -0.500000 -0.657842 -1.263650
v -0.866026 -0.880664 -0.973263
v -1.000000 -1.185045 -0.576586
v -0.866026 -1.489425 -0.179909
v -0.500000 -1.712247 0.110478
v -0.000000 -2.285532 -0.214464
v 0.500000 -2.190798 -0.309198
v 0.866025 -1.931979 -0.568018
v 1.000000 -1.578426 -0.921571
v 0.866025 -1.224872 -1.275125
v 0.500000 -0.966053 -1.533944
v -0.000000 -0.871319 -1.628678
v -0.500000 -0.966053 -1.533944
v -0.866026 -1.224872 -1.275125
v -1.000000 -1.578426 -0.921571
v -0.866026 -1.931979 -0.568018
v -0.500000 -2.190798 -0.309198
v -0.000000 -2.716767 -0.706193
v 0.500000 -2.610478 -0.787752
v 0.866025 -2.320091 -1.010574
v 1.000000 -1.923414 -1.314955
v 0.866025 -1.526737 -1.619335
v 0.500000 -1.236350 -1.842158
v -0.000000 -1.130060 -1.923716
v -0.500000 -1.236350 -1.842158
v -0.866026 -1.526737 -1.619335
v -1.000000 -1.923414 -1.314955
v -0.866026 -2.320091 -1.010574
v -0.500000 -2.610478 -0.787752
v -0.000000 -3.080127 -1.250000
v 0.500000 -2.964101 -1.316987
v 0.866025 -2.647114 -1.500000
v 1.000000 -2.214101 -1.750000
v 0.866025 -1.781089 -2.000000
v 0.500000 -1.464101 -2.183012
v -0.000000 -1.348076 -2.250000
v -0.500000 -1.464101 -2.183012
v -0.866026 -1.781089 -2.000000
v -1.000000 -2.214101 -1.750000
v -0.866026 -2.647114 -1.500000
v -0.500000 -2.964101 -1.316987
v -0.000000 -3.369397 -1.836581
v 0.500000 -3.245621 -1.887851
v 0.866025 -2.907457 -2.027923
v 1.000000 -2.445518 -2.219265
v 0.866025 -1.983578 -2.410607
v -0.866026 -1.983578 -2.410607
v -1.000000 -2.445518 -2.219265
v -0.866026 -2.907457 -2.027923
v -0.500000 -3.245621 -1.887851
v -0.000000 -3.579629 -2.455906
v 0.500000 -3.450220 -2.490581
v -0.500000 -3.450220 -2.490581
v 2.500000 -0.100000 -2.500000
v 2.500000 -5.000000 -2.500000
v 2.500000 -0.100000 2.500000
v 2.500000 -5.000000 2.500000
v -2.500000 -0.100000 -2.500000
v -2.500000 -5.000000 -2.500000
v -2.500000 -0.100000 2.500000
v -2.500000 -5.000000 2.500000
v -0.000000 -0.100000 1.060652
v 0.500000 -0.100000 0.919472
v -0.000000 -1.471363 -2.500000
v 0.866025 -0.100000 0.533761
v -0.500000 -1.620423 -2.500000
v -0.632430 -1.767763 -2.500000
v 1.000000 -0.100000 0.006869
v 0.536391 -3.415069 -2.500000
v 0.873452 -0.100000 -0.490814
v 0.866025 -3.067706 -2.500000
v -0.873452 -0.100000 -0.490814
v -1.000000 -0.100000 0.006869
v 1.000000 -2.540814 -2.500000
v -0.866025 -0.100000 0.533761
v 0.866025 -2.013923 -2.500000
v -0.704243 -0.100000 0.704244
v -0.500000 -0.100000 0.919472
v 0.632429 -1.767763 -2.500000
v 0.712308 -1.851938 -2.500000
v -0.866026 -2.013923 -2.500000
v 0.866025 -0.100000 -0.521653
v -1.000000 -2.540814 -2.500000
v 0.500000 -0.100000 -0.928892
v -0.866026 -3.067706 -2.500000
v -0.536391 -3.415069 -2.500000
v -0.000000 -0.100000 -1.077952
v -0.000000 -3.588400 -2.500000
v 0.500000 -3.452094 -2.500000
v -0.500000 -0.100000 -0.928892
v -0.600153 -0.100000 -0.817462
v -0.866025 -0.100000 -0.521653
v -0.500000 -3.452094 -2.500000
v 0.500000 -1.620423 -2.500000
vt 0.375000 0.750000
vt 0.625000 0.750000
vt 0.625000 1.000000
vt 0.375000 1.000000
vt 0.375000 0.000000
vt 0.625000 0.000000
vt 0.625000 0.250000
vt 0.375000 0.250000
vt 0.125000 0.500000
vt 0.375000 0.500000
vt 0.125000 0.750000
vt 0.625000 0.500000
vt 0.294798 0.583333
vt 0.312500 0.583333
vt 0.312500 0.500000
vt 0.293547 0.500000
vt 0.298593 0.666667
vt 0.312500 0.666667
vt 0.304900 0.750000
vt 0.312500 0.750000
vt 0.312500 0.828714
vt 0.304900 0.250000
vt 0.312500 0.250000
vt 0.312500 0.171286
vt 0.298593 0.333333
vt 0.312500 0.333333
vt 0.312500 0.416667
vt 0.296835 0.370166
vt 0.294798 0.416667
vt 0.333333 0.583333
vt 0.333333 0.500000
vt 0.333333 0.666667
vt 0.333333 0.750000
vt 0.333333 0.833333
vt 0.313038 0.833333
vt 0.321038 0.916667
vt 0.333333 0.916667
vt 0.324454 1.000000
vt 0.333333 1.000000
vt 0.321038 0.083333
vt 0.333333 0.083333
vt 0.333333 0.000000
vt 0.324454 0.000000
vt 0.318648 0.106135
vt 0.313038 0.166667
vt 0.333333 0.166667
vt 0.333333 0.250000
vt 0.333333 0.333333
vt 0.333333 0.416667
vt 0.354167 0.583333
vt 0.354167 0.500000
vt 0.354167 0.666667
vt 0.354167 0.750000
vt 0.354167 0.833333
vt 0.354167 0.916667
vt 0.354167 1.000000
vt 0.354167 0.083333
vt 0.354167 0.000000
vt 0.354167 0.166667
vt 0.354167 0.250000
vt 0.354167 0.333333
vt 0.354167 0.416667
vt 0.375000 0.583333
vt 0.375000 0.500000
vt 0.375000 0.666667
vt 0.375000 0.750000
vt 0.375000 0.833333
vt 0.375000 0.916667
vt 0.375000 1.000000
vt 0.375000 0.083333
vt 0.375000 0.000000
vt 0.375000 0.166667
vt 0.375000 0.250000
vt 0.375000 0.333333
vt 0.375000 0.416667
vt 0.395833 0.583333
vt 0.395833 0.500000
vt 0.395833 0.666667
vt 0.395833 0.750000
vt 0.395833 0.833333
vt 0.395833 0.916667
vt 0.395833 1.000000
vt 0.395833 0.083333
vt 0.395833 0.000000
vt 0.395833 0.166667
vt 0.395833 0.250000
vt 0.395833 0.333333
vt 0.395833 0.416667
vt 0.416667 0.583333
vt 0.416667 0.500000
vt 0.416667 0.666667
vt 0.416667 0.750000
vt 0.416667 0.833333
vt 0.416667 0.916667
vt 0.416667 1.000000
vt 0.416667 0.083333
vt 0.416667 0.000000
vt 0.416667 0.166667
vt 0.416667 0.250000
vt 0.416667 0.333333
vt 0.416667 0.416667
vt 0.437500 0.583333
vt 0.437500 0.500000
vt 0.437500 0.666667
vt 0.437500 0.750000
vt 0.437500 0.833333
vt 0.437500 0.886516
vt 0.434628 0.916667
vt 0.431465 1.000000
vt 0.434628 0.083333
vt 0.431465 0.000000
vt 0.437500 0.166667
vt 0.437500 0.113484
vt 0.437500 0.250000
vt 0.437500 0.333333
vt 0.437500 0.416667
vt 0.458333 0.583333
vt 0.458333 0.500000
vt 0.458333 0.591619
vt 0.455145 0.666667
vt 0.449304 0.750000
vt 0.441796 0.833333
vt 0.439041 0.868330
vt 0.441796 0.166667
vt 0.449304 0.250000
vt 0.455145 0.333333
vt 0.458333 0.416667
vt 0.458333 0.408381
vt 0.458648 0.583333
vt 0.459765 0.500000
vt 0.458648 0.416667
vt 0.780008 0.584127
vt 0.875000 0.500000
vt 0.875000 0.750000
vt 0.785212 0.660212
vt 0.793301 0.651688
vt 0.800000 0.625343
vt 0.793673 0.600459
vt 0.793301 0.598917
vt 0.775000 0.670974
vt 0.775000 0.578555
vt 0.750000 0.571102
vt 0.725000 0.578555
vt 0.706699 0.598917
vt 0.706327 0.600459
vt 0.700000 0.625343
vt 0.706699 0.651688
vt 0.725000 0.670974
vt 0.750000 0.678033
vt 0.539910 0.343379
vt 0.535615 0.410615
vt 0.539910 0.406621
vt 0.547427 0.400000
vt 0.555033 0.375000
vt 0.547427 0.350000
vt 0.527351 0.331699
vt 0.500469 0.325000
vt 0.473586 0.331699
vt 0.455864 0.348180
vt 0.453975 0.350000
vt 0.447020 0.375000
vt 0.453975 0.400000
vt 0.455864 0.401820
vt 0.473586 0.418301
vt 0.500469 0.425000
vt 0.527351 0.418301
vn -0.0000 0.0000 1.0000
vn -1.0000 0.0000 0.0000
vn 0.0000 -1.0000 0.0000
vn 1.0000 -0.0000 0.0000
vn -0.2583 0.3105 -0.9148
vn -0.7063 0.2275 -0.6703
vn -0.9658 0.0834 -0.2456
vn -0.9658 -0.0834 0.2456
vn 0.9658 -0.0834 0.2456
vn 0.9658 0.0834 -0.2456
vn 0.7063 0.2275 -0.6703
vn 0.2583 0.3105 -0.9148
vn -0.2583 0.4273 -0.8664
vn -0.7063 0.3131 -0.6349
vn -0.9658 0.1147 -0.2326
vn -0.9658 -0.1147 0.2326
vn -0.7063 -0.3131 0.6349
vn -0.2583 -0.4273 0.8664
vn 0.2583 -0.4273 0.8664
vn 0.7063 -0.3131 0.6349
vn 0.9658 -0.1147 0.2326
vn 0.9658 0.1147 -0.2326
vn 0.7063 0.3131 -0.6349
vn 0.2583 0.4273 -0.8664
vn -0.2583 0.5367 -0.8033
vn -0.7063 0.3933 -0.5886
vn -0.9658 0.1441 -0.2156
vn -0.9658 -0.1441 0.2156
vn -0.7063 -0.3933 0.5886
vn -0.2583 -0.5367 0.8033
vn 0.2583 -0.5367 0.8033
vn 0.7063 -0.3933 0.5886
vn 0.9658 -0.1441 0.2156
vn 0.9658 0.1441 -0.2156
vn 0.7063 0.3933 -0.5886
vn 0.2583 0.5367 -0.8033
vn -0.2583 0.6370 -0.7263
vn -0.7063 0.4667 -0.5322
vn -0.9658 0.1710 -0.1950
vn -0.9658 -0.1710 0.1950
vn -0.7063 -0.4667 0.5322
vn -0.2583 -0.6370 0.7263
vn 0.2583 -0.6370 0.7263
vn 0.7063 -0.4667 0.5322
vn 0.9658 -0.1710 0.1950
vn 0.9658 0.1710 -0.1950
vn 0.7063 0.4667 -0.5322
vn 0.2583 0.6370 -0.7263
vn -0.2583 0.7263 -0.6370
vn -0.7063 0.5322 -0.4667
vn -0.9658 0.1950 -0.1710
vn -0.9658 -0.1950 0.1710
vn -0.7063 -0.5322 0.4667
vn -0.2583 -0.7263 0.6370
vn 0.2583 -0.7263 0.6370
vn 0.7063 -0.5322 0.4667
vn 0.9658 -0.1950 0.1710
vn 0.9658 0.1950 -0.1710
vn 0.7063 0.5322 -0.4667
vn 0.2583 0.7263 -0.6370
vn -0.2583 0.8033 -0.5367
vn -0.7063 0.5886 -0.3933
vn -0.9658 0.2156 -0.1441
vn -0.9658 -0.2156 0.1441
vn -0.7063 -0.5886 0.3933
vn -0.2583 -0.8033 0.5367
vn 0.2583 -0.8033 0.5367
vn 0.7063 -0.5886 0.3933
vn 0.9658 -0.2156 0.1441
vn 0.9658 0.2156 -0.1441
vn 0.7063 0.5886 -0.3933
vn 0.2583 0.8033 -0.5367
vn -0.2583 0.8664 -0.4273
vn -0.7063 0.6349 -0.3131
vn -0.9658 0.2326 -0.1147
vn -0.9658 -0.2326 0.1147
vn -0.7063 -0.6349 0.3131
vn -0.2583 -0.8664 0.4273
vn 0.2583 -0.8664 0.4273
vn 0.7063 -0.6349 0.3131
vn 0.9658 -0.2326 0.1147
vn 0.9658 0.2326 -0.1147
vn 0.7063 0.6349 -0.3131
vn 0.2583 0.8664 -0.4273
vn -0.2583 0.9148 -0.3105
vn -0.7063 0.6703 -0.2275
vn -0.9658 0.2456 -0.0834
vn -0.9658 -0.2456 0.0834
vn -0.7063 -0.6703 0.2275
vn 0.7063 -0.6703 0.2275
vn 0.9658 -0.2456 0.0834
vn 0.9658 0.2456 -0.0834
vn 0.7063 0.6703 -0.2275
vn 0.2583 0.9148 -0.3105
vn -0.2583 0.9475 -0.1885
vn -0.7063 0.6943 -0.1381
vn 0.7063 0.6943 -0.1381
vn 0.2583 0.9475 -0.1885
vn 0.0000 1.0000 0.0000
vn -0.0000 0.0000 -1.0000
usemtl Material
s off
f 83/1/1 82/2/1 86/3/1 87/4/1
f 87/5/2 86/6/2 84/7/2 85/8/2
f 85/9/3 81/10/3 83/1/3 87/11/3
f 81/10/4 80/12/4 82/2/4 83/1/4
f 89/13/5 2/14/5 1/15/5 88/16/5
f 91/17/6 3/18/6 2/14/6 89/13/6
f 94/19/7 4/20/7 3/18/7 91/17/7
f 96/21/8 4/20/8 94/19/8
f 99/22/9 5/23/9 98/24/9
f 101/25/10 6/26/10 5/23/10 99/22/10
f 7/27/11 6/26/11 101/25/11 103/28/11 104/29/11
f 88/16/12 1/15/12 7/27/12 104/29/12
f 1/15/13 2/14/13 9/30/13 8/31/13
f 2/14/14 3/18/14 10/32/14 9/30/14
f 3/18/15 4/20/15 11/33/15 10/32/15
f 12/34/16 11/33/16 4/20/16 96/21/16 108/35/16
f 110/36/17 13/37/17 12/34/17 108/35/17
f 113/38/18 14/39/18 13/37/18 110/36/18
f 116/40/19 15/41/19 14/42/19 113/43/19
f 117/44/20 118/45/20 16/46/20 15/41/20 116/40/20
f 5/23/21 17/47/21 16/46/21 118/45/21 98/24/21
f 5/23/22 6/26/22 18/48/22 17/47/22
f 6/26/23 7/27/23 19/49/23 18/48/23
f 7/27/24 1/15/24 8/31/24 19/49/24
f 8/31/25 9/30/25 21/50/25 20/51/25
f 9/30/26 10/32/26 22/52/26 21/50/26
f 10/32/27 11/33/27 23/53/27 22/52/27
f 11/33/28 12/34/28 24/54/28 23/53/28
f 12/34/29 13/37/29 25/55/29 24/54/29
f 13/37/30 14/39/30 26/56/30 25/55/30
f 14/42/31 15/41/31 27/57/31 26/58/31
f 15/41/32 16/46/32 28/59/32 27/57/32
f 16/46/33 17/47/33 29/60/33 28/59/33
f 17/47/34 18/48/34 30/61/34 29/60/34
f 18/48/35 19/49/35 31/62/35 30/61/35
f 19/49/36 8/31/36 20/51/36 31/62/36
f 20/51/37 21/50/37 33/63/37 32/64/37
f 21/50/38 22/52/38 34/65/38 33/63/38
f 22/52/39 23/53/39 35/66/39 34/65/39
f 23/53/40 24/54/40 36/67/40 35/66/40
f 24/54/41 25/55/41 37/68/41 36/67/41
f 25/55/42 26/56/42 38/69/42 37/68/42
f 26/58/43 27/57/43 39/70/43 38/71/43
f 27/57/44 28/59/44 40/72/44 39/70/44
f 28/59/45 29/60/45 41/73/45 40/72/45
f 29/60/46 30/61/46 42/74/46 41/73/46
f 30/61/47 31/62/47 43/75/47 42/74/47
f 31/62/48 20/51/48 32/64/48 43/75/48
f 32/64/49 33/63/49 45/76/49 44/77/49
f 33/63/50 34/65/50 46/78/50 45/76/50
f 34/65/51 35/66/51 47/79/51 46/78/51
f 35/66/52 36/67/52 48/80/52 47/79/52
f 36/67/53 37/68/53 49/81/53 48/80/53
f 37/68/54 38/69/54 50/82/54 49/81/54
f 38/71/55 39/70/55 51/83/55 50/84/55
f 39/70/56 40/72/56 52/85/56 51/83/56
f 40/72/57 41/73/57 53/86/57 52/85/57
f 41/73/58 42/74/58 54/87/58 53/86/58
f 42/74/59 43/75/59 55/88/59 54/87/59
f 43/75/60 32/64/60 44/77/60 55/88/60
f 44/77/61 45/76/61 57/89/61 56/90/61
f 45/76/62 46/78/62 58/91/62 57/89/62
f 46/78/63 47/79/63 59/92/63 58/91/63
f 47/79/64 48/80/64 60/93/64 59/92/64
f 48/80/65 49/81/65 61/94/65 60/93/65
f 49/81/66 50/82/66 62/95/66 61/94/66
f 50/84/67 51/83/67 63/96/67 62/97/67
f 51/83/68 52/85/68 64/98/68 63/96/68
f 52/85/69 53/86/69 65/99/69 64/98/69
f 53/86/70 54/87/70 66/100/70 65/99/70
f 54/87/71 55/88/71 67/101/71 66/100/71
f 55/88/72 44/77/72 56/90/72 67/101/72
f 56/90/73 57/89/73 69/102/73 68/103/73
f 57/89/74 58/91/74 70/104/74 69/102/74
f 58/91/75 59/92/75 71/105/75 70/104/75
f 59/92/76 60/93/76 72/106/76 71/105/76
f 105/107/77 72/106/77 60/93/77 61/94/77 120/108/77
f 61/94/78 62/95/78 90/109/78 120/108/78
f 62/97/79 63/96/79 92/110/79 90/111/79
f 92/110/80 63/96/80 64/98/80 73/112/80 93/113/80
f 64/98/81 65/99/81 74/114/81 73/112/81
f 65/99/82 66/100/82 75/115/82 74/114/82
f 66/100/83 67/101/83 76/116/83 75/115/83
f 67/101/84 56/90/84 68/103/84 76/116/84
f 68/103/85 69/102/85 78/117/85 77/118/85
f 95/119/86 78/117/86 69/102/86 70/104/86 97/120/86
f 70/104/87 71/105/87 100/121/87 97/120/87
f 71/105/88 72/106/88 102/122/88 100/121/88
f 72/106/89 105/107/89 106/123/89 102/122/89
f 73/112/90 107/124/90 93/113/90
f 107/124/91 73/112/91 74/114/91 109/125/91
f 109/125/92 74/114/92 75/115/92 111/126/92
f 111/126/93 75/115/93 76/116/93 79/127/93 112/128/93
f 76/116/94 68/103/94 77/118/94 79/127/94
f 77/118/95 78/117/95 115/129/95 114/130/95
f 78/117/96 95/119/96 115/129/96
f 79/127/97 119/131/97 112/128/97
f 79/127/98 77/118/98 114/130/98 119/131/98
f 117/132/99 84/133/99 86/134/99 103/135/99 101/136/99 99/137/99 98/138/99 118/139/99
f 104/140/99 103/135/99 86/134/99 82/2/99 80/12/99 84/133/99 117/132/99 116/141/99 113/142/99 110/143/99 108/144/99 96/145/99 94/146/99 91/147/99 89/148/99 88/149/99
f 93/150/100 84/7/100 80/12/100 106/151/100 105/152/100 120/153/100 90/154/100 92/155/100
f 80/12/100 81/10/100 85/8/100 84/7/100 93/150/100 107/156/100 109/157/100 111/158/100 112/159/100 119/160/100 114/161/100 115/162/100 95/163/100 97/164/100 100/165/100 102/166/100 106/151/100
